<?xml version="1.0" encoding="UTF-8"?>
<svg width="542" height="476" version="1.1" viewBox="0 0 542 476" xml:space="preserve" xmlns="http://www.w3.org/2000/svg">
<style type="text/css">
	.st0{fill:#000091;}
	.st1{fill:#E1000F;}
	.st2{fill:#9D9D9C;}
	.st3{fill:none;}
</style>
<g id="vect" transform="translate(-83.8 -83.8)">
				<path d="m84 210h19.3c13.9 0 22.5 7.13 22.5 18.9 0 7.58-3.7 13.3-10.1 16.3l19.8 28h-15.3l-16.8-25.5h-6.59v25.5h-12.8zm12.8 10.9v15.8h7.22c5.41 0 8.57-2.89 8.57-8.03 0-4.78-3.16-7.76-8.57-7.76z"/>
				<path d="m143 210h36.8v10.9h-24v14.6h20.4v10.9h-20.4v15.8h24v10.9h-36.8zm12.5-5.42 10.2-12.2h13.2l-11.7 12.2z"/>
				<path d="m195 210h20.8c13.9 0 22.4 7.13 22.4 18.9 0 11.6-8.48 18.8-22.4 18.8h-8.03v25.5h-12.8zm12.8 10.9v15.8h8.57c5.41 0 8.66-2.89 8.66-8.03 0-4.78-3.25-7.76-8.66-7.76z"/>
				<path d="m286 210h12.8v38.4c0 16.6-9.74 26.5-25.6 26.5-15.8 0-25.5-9.92-25.5-26.5v-38.4h12.8v39.5c0 8.48 4.78 13.4 12.8 13.4 7.85 0 12.7-4.96 12.7-13.4z"/>
				<path d="m315 210h18c13.2 0 21.1 6.5 21.1 17.1 0 5.05-2.35 9.47-6.68 12.4 6.68 2.98 10.4 8.39 10.4 15 0 11.6-8.93 18.6-23.5 18.6h-19.3zm12.8 10.9v13.8h5.41c4.87 0 7.67-2.44 7.67-6.95 0-4.24-2.8-6.86-7.67-6.86h-5.41zm0 24.8v16.5h7.22c5.96 0 9.56-3.16 9.56-8.39s-3.61-8.12-9.56-8.12z"/>
				<path d="m371 210h12.8v51.5h24v11.6h-36.8z"/>
				<path d="m419 210h12.8v63.2h-12.8z"/>
				<path d="m516 277c1.35 0 3.16-0.18 4.51-0.72v10.8c-2.08 0.81-3.88 1.17-6.68 1.17-7.04 0-13.5-2.89-19.8-8.3l-7.49-6.68c-2.71 0.72-5.59 1.08-8.66 1.08-19.9 0-33.6-15.3-33.6-33.4 0-18 13.6-33.4 33.6-33.4 19.8 0 33.5 15.3 33.5 33.4 0 10.6-4.69 20.2-12.4 26.4l3.79 3.61c4.88 4.42 9.21 6.04 13.3 6.04zm-17.8-36c0-12.1-8.48-21.4-20.3-21.4-11.9 0-20.4 9.29-20.4 21.4s8.48 21.4 20.4 21.4c11.8 0.01 20.3-9.29 20.3-21.4z"/>
				<path d="m560 210h12.8v38.4c0 16.6-9.74 26.5-25.6 26.5-15.8 0-25.5-9.92-25.5-26.5v-38.4h12.8v39.5c0 8.48 4.78 13.4 12.8 13.4 7.85 0 12.7-4.96 12.7-13.4z"/>
				<path d="m589 210h36.8v10.9h-24v14.6h20.4v10.9h-20.4v15.8h24v10.9h-36.8z"/>
				<path d="m84 301h36.8v10.9h-24v14.6h20.4v10.9h-20.4v26.7h-12.8z"/>
				<path d="m132 301h19.3c13.9 0 22.5 7.13 22.5 18.9 0 7.58-3.7 13.3-10.1 16.3l19.8 28h-15.3l-16.8-25.5h-6.59v25.5h-12.8zm12.8 10.9v15.8h7.22c5.41 0 8.57-2.89 8.57-8.03 0-4.78-3.16-7.76-8.57-7.76z"/>
				<path d="m210 301h16.8l23.9 63.2h-13.6l-6.04-16.4h-25.3l-6.04 16.4h-13.6zm17 35.8-8.66-23.7-8.66 23.7z"/>
				<path d="m261 301h16.4l28.2 45.2v-45.2h12.8v63.2h-16.4l-28.2-45.4v45.4h-12.8z"/>
				<path d="m380 345 10.1 7.76c-4.87 6.68-12.4 11.4-21.6 12.5l-7.85 13.1h-11.4l7.94-13.3c-16.4-2.89-27.2-16.8-27.2-32.8 0-18 13.6-33.4 33.6-33.4 11.5 0 20.8 5.14 26.6 12.8l-10.1 7.85c-3.61-5.14-9.29-8.66-16.5-8.66-11.9 0-20.4 9.29-20.4 21.4s8.48 21.4 20.4 21.4c7.22 0 12.9-3.52 16.5-8.66z"/>
				<path d="m417 301h16.8l23.9 63.2h-13.6l-6.04-16.4h-25.3l-6.04 16.4h-13.6zm17 35.8-8.66-23.7-8.66 23.7z"/>
				<path d="m468 301h12.8v63.2h-12.8z"/>
				<path d="m502 346c3.79 4.87 8.84 7.76 14 7.76 5.05 0 8.12-2.71 8.12-7.31 0-11.3-28.9-8.75-28.9-29.8 0-10 8.21-18.3 20.2-18.3 9.47 0 16.8 4.24 22.1 10.6l-9.38 8.39c-3.7-4.78-7.85-7.85-12.6-7.85-4.42 0-7.31 2.89-7.31 6.59 0 11.3 28.9 8.66 28.9 30-0.18 11.7-9.38 19-20.9 19-10.6 0-17.9-3.88-23.5-10.6z"/>
				<path d="m550 301h36.8v10.9h-24v14.6h20.4v10.9h-20.4v15.8h24v10.9h-36.8z"/>
			<path d="m290 538c1.71 0 3.2 1.3 2.41 4.58l-7.96 1.85c1.38-3.7 3.7-6.43 5.55-6.43m4.4 12.8h-1.57c-1.99 2.36-4.12 4.21-6.25 4.21-2.18 0-3.29-1.3-3.29-4.21 0-1.2 0.14-2.41 0.37-3.52l12.8-4.21c2.5-5.93-0.51-8.52-4.03-8.52-6.07 0-13 10.1-13 19 0 3.98 1.9 6.16 4.86 6.16 3.47 0 7.08-3.38 10-8.94m-2.55-18.6 9.03-8.43v-0.97h-4.86l-5.56 9.4zm-27.7 5.93h4.26l-6.76 18.5c-0.6 1.57 0.23 3.15 1.85 3.15 3.84 0 10-3.8 12.2-8.98h-1.2c-1.71 1.81-5 4.21-7.83 4.72l6.21-17.4h6.34l0.79-2.64h-6.16l2.36-6.67h-2.45l-4.4 6.67-5.23 0.74v1.9zm-5.74-0.88c0.51-1.71-0.65-2.69-1.53-2.69-3.7 0-8.1 3.33-9.86 8.01h1.2c1.2-1.71 3.24-3.61 5.14-3.94l-7.08 18.4c-0.65 1.71 0.65 2.69 1.53 2.69 3.52 0 7.64-3.38 9.4-8.01h-1.2c-1.2 1.71-3.24 3.61-5.14 3.94zm1.29-9.26c1.67 0 3.06-1.34 3.06-3.06 0-1.67-1.39-3.06-3.06-3.06-1.71 0-3.06 1.39-3.06 3.06 0.01 1.71 1.35 3.06 3.06 3.06m-40.8 28.3c-0.93 2.08 0.05 3.43 2.08 3.43 1.25 0 1.81-0.32 2.32-1.67l4.91-13c2.27-2.78 6.95-5.74 8.8-5.74 1.34 0 1.16 1.11 0.28 2.78l-7.55 14.5c-0.74 1.44 0.23 3.15 1.85 3.15 3.7 0 8.1-3.33 9.86-8.01h-1.2c-1.2 1.71-3.24 3.61-5.14 3.94l6.48-13.1c0.83-1.67 1.25-3.24 1.25-4.49 0-2.13-1.2-3.52-3.43-3.52-3.2 0-6.44 3.61-10.3 8.06v-3.43c0-2.45-0.79-4.63-3.01-4.63-1.39 0-2.73 1.2-3.98 2.92v0.46c2.41-0.14 3.47 3.47 1.76 7.27zm-0.09-16.1c0.88-3.01 0.42-5.65-1.9-5.65-2.73 0-3.43 2.08-6.21 8.06v-3.43c0-2.45-0.79-4.63-3.01-4.63-2.59 0-4.95 4.03-6.76 8.01h1.2c1.25-1.81 2.41-2.87 3.33-2.87 1.11 0 1.71 1.71 0 5.51l-5 11.1c-0.93 2.08 0.05 3.43 2.08 3.43 1.25 0 1.81-0.32 2.32-1.67l4.91-13c1.39-1.71 2.64-3.2 4.21-4.86zm-28.4-2.22c1.71 0 3.2 1.3 2.41 4.58l-7.96 1.85c1.39-3.7 3.7-6.43 5.55-6.43m4.4 12.8h-1.57c-1.99 2.36-4.12 4.21-6.25 4.21-2.18 0-3.29-1.3-3.29-4.21 0-1.2 0.14-2.41 0.37-3.52l12.8-4.21c2.5-5.93-0.51-8.52-4.03-8.52-6.07 0-13 10.1-13 19 0 3.98 1.9 6.16 4.86 6.16 3.48 0 7.09-3.38 10-8.94m-30.2-12.7h4.26l-6.76 18.5c-0.6 1.57 0.23 3.15 1.85 3.15 3.84 0 10-3.8 12.2-8.98h-1.2c-1.71 1.81-5 4.21-7.83 4.72l6.21-17.4h6.34l0.79-2.64h-6.16l2.36-6.67h-2.45l-4.4 6.67-5.23 0.74v1.9zm-23.4 14.4c0-5.7 6.34-13.4 9.91-13.4 0.79 0 1.53 0.09 2.18 0.28l-3.7 9.86c-2.13 2.59-5.42 5.74-6.95 5.74-0.88 0-1.44-0.74-1.44-2.45m19.5-19-1.94-0.14-2.18 2.13h-0.46c-10.6 0-19.7 11.8-19.7 20.5 0 2.41 1.48 3.8 3.8 3.8 2.73 0 5.42-3.89 8.43-8.06l-0.14 1.48c-0.37 4.26 0.93 6.58 3.15 6.58 2.59 0 4.95-4.03 6.76-8.01h-1.2c-1.25 1.81-2.41 2.87-3.33 2.87-0.97 0-1.67-1.76 0-5.51zm-22.5 6.71c0.88-3.01 0.42-5.65-1.9-5.65-2.73 0-3.43 2.08-6.21 8.06v-3.43c0-2.45-0.79-4.63-3.01-4.63-2.59 0-4.95 4.03-6.76 8.01h1.2c1.25-1.81 2.41-2.87 3.33-2.87 1.11 0 1.71 1.71 0 5.51l-5 11.1c-0.93 2.08 0.05 3.43 2.08 3.43 1.25 0 1.81-0.32 2.32-1.67l4.91-13c1.39-1.71 2.64-3.2 4.21-4.86zm-35.5 18.6 0.46-1.44c-6.16-1.16-6.95-1.16-4.49-7.87l2.5-6.9h6.81c3.06 0 3.1 1.25 2.64 4.58h1.76l4.08-11.2h-1.76c-1.53 2.64-2.73 4.58-6.07 4.58h-6.71l3.57-9.77c1.11-3.1 1.76-3.75 5.93-3.75h2.96c4.31 0 4.82 1.16 4.82 5.51h1.71l1.44-7.59h-25.6l-0.46 1.44c4.95 1.02 5.42 1.48 3.1 7.87l-5.56 15.2c-2.32 6.34-3.29 6.85-8.98 7.87l-0.42 1.44z"/>
			<path d="m228 480c1.71 0 3.2 1.3 2.41 4.58l-7.96 1.85c1.38-3.69 3.69-6.43 5.55-6.43m4.39 12.8h-1.57c-1.99 2.36-4.12 4.21-6.25 4.21-2.18 0-3.29-1.3-3.29-4.21 0-1.2 0.14-2.41 0.37-3.52l12.8-4.21c2.5-5.93-0.51-8.52-4.03-8.52-6.07 0-13 10.1-13 19 0 3.98 1.9 6.16 4.86 6.16 3.48 0 7.09-3.38 10-8.94m-2.54-18.6 9.03-8.43v-0.97h-4.86l-5.56 9.4zm-27.7 5.92h4.26l-6.76 18.5c-0.6 1.57 0.23 3.15 1.85 3.15 3.84 0 10-3.8 12.2-8.98h-1.2c-1.71 1.81-5 4.21-7.83 4.72l6.21-17.4h6.34l0.79-2.64h-6.16l2.36-6.67h-2.45l-4.4 6.67-5.23 0.74v1.9zm-5.75-0.88c0.51-1.71-0.65-2.69-1.53-2.69-3.7 0-8.1 3.33-9.86 8.01h1.2c1.2-1.71 3.24-3.61 5.14-3.94l-7.08 18.4c-0.65 1.71 0.65 2.69 1.53 2.69 3.52 0 7.64-3.38 9.4-8.01h-1.2c-1.2 1.71-3.24 3.61-5.14 3.94zm1.3-9.26c1.67 0 3.06-1.34 3.06-3.06 0-1.67-1.39-3.06-3.06-3.06-1.71 0-3.06 1.39-3.06 3.06 0.01 1.72 1.35 3.06 3.06 3.06m-24.6 27.7 12.9-33.8-0.42-0.51-8.1 0.93v0.97l1.57 1.2c1.44 1.11 0.97 2.18-0.32 5.6l-10.1 26.6c-0.74 1.44 0.23 3.15 1.85 3.15 3.7 0 7.64-3.33 9.4-8.01h-1.2c-1.21 1.72-3.72 3.62-5.61 3.94m-24.6-3.15c0-5.7 6.34-13.4 9.91-13.4 0.79 0 1.53 0.09 2.18 0.28l-3.7 9.86c-2.13 2.59-5.42 5.74-6.95 5.74-0.88 0.01-1.44-0.73-1.44-2.45m19.5-19-1.94-0.14-2.18 2.13h-0.46c-10.6 0-19.7 11.8-19.7 20.5 0 2.41 1.48 3.8 3.8 3.8 2.73 0 5.42-3.89 8.43-8.06l-0.14 1.48c-0.37 4.26 0.93 6.58 3.15 6.58 2.59 0 4.95-4.03 6.76-8.01h-1.2c-1.25 1.81-2.41 2.87-3.33 2.87-0.97 0-1.67-1.76 0-5.51zm-47.1 30.8c0-2.45 2.36-3.98 5.74-5.33 1.11 0.56 2.78 1.16 5 1.9 3.52 1.16 4.86 1.62 4.86 2.69 0 2.27-3.84 3.98-9.08 3.98-4.39 0-6.52-0.92-6.52-3.24m9.58-15c-1.53 0-2.13-1.3-2.13-2.78 0-4.12 2.22-10.2 5.7-10.2 1.53 0 2.13 1.3 2.13 2.78 0 4.13-2.22 10.2-5.7 10.2m10 12.7c0-2.96-2.64-4.03-6.95-5.33-3.7-1.11-5.37-1.44-5.37-2.64 0-0.97 0.79-2.13 2.36-2.96 6.07-0.32 10-5.79 10-10.4 0-0.97-0.19-1.81-0.51-2.55h5.14l0.79-2.64h-8.15c-0.97-0.6-2.13-0.93-3.29-0.93-6.44 0-10.6 5.65-10.6 10.2 0 3.47 2.22 5.65 4.91 6.16-3.01 1.34-4.68 2.92-4.68 4.77 0 1.07 0.37 1.81 1.25 2.5-6.95 2.04-9.68 4.35-9.68 7.64 0 3.2 4.21 4.54 9.22 4.54 8.48 0.01 15.6-4.58 15.6-8.42m-32.4-19.8c3.06 0 3.1 1.25 2.64 4.58h1.76l4.08-11.2h-1.76c-1.53 2.64-2.73 4.58-6.07 4.58h-6.71l3.38-9.31c1.11-3.1 1.76-3.7 5.93-3.7h2.96c4.31 0 4.82 1.16 4.82 5.46h1.71l1.44-7.59h-25.6l-0.46 1.44c4.95 1.02 5.42 1.48 3.1 7.87l-5.56 15.2c-2.32 6.34-3.29 6.85-8.98 7.87l-0.42 1.44h28.4l5.09-8.06h-1.94c-3.24 3.06-7.32 5.97-13 5.97-7.55 0-6.85-0.32-4.35-7.22l2.69-7.36zm3.71-19.4 9.03-6.21v-0.97h-5.46l-5 7.18z"/>
			<path d="m224 422c1.71 0 3.2 1.3 2.41 4.58l-7.96 1.85c1.39-3.7 3.7-6.43 5.55-6.43m4.4 12.8h-1.57c-1.99 2.36-4.12 4.21-6.25 4.21-2.18 0-3.29-1.3-3.29-4.21 0-1.2 0.14-2.41 0.37-3.52l12.8-4.21c2.5-5.93-0.51-8.52-4.03-8.52-6.07 0-13 10.1-13 19 0 3.98 1.9 6.16 4.86 6.16 3.48-0.01 7.09-3.39 10-8.94m-2.54-18.6 9.03-8.43v-0.97h-4.86l-5.56 9.4zm-26.5 5.93h3.38l-6.76 18.5c-0.6 1.57 0.23 3.15 1.85 3.15 3.84 0 10-3.8 12.2-8.98h-1.2c-1.71 1.81-5 4.21-7.83 4.72l6.21-17.4h6.34l0.79-2.64h-6.16l2.36-6.67h-2.45l-4.4 6.67-4.35 0.74v1.9zm-3.33 2.08c0.88-3.01 0.42-5.65-1.9-5.65-2.73 0-3.43 2.08-6.21 8.06v-3.43c0-2.45-0.79-4.63-3.01-4.63-2.59 0-4.95 4.03-6.76 8.01h1.2c1.25-1.81 2.41-2.87 3.33-2.87 1.11 0 1.71 1.71 0 5.51l-5 11.1c-0.93 2.08 0.05 3.43 2.08 3.43 1.25 0 1.81-0.32 2.32-1.67l4.91-13c1.39-1.71 2.64-3.2 4.21-4.86zm-28.4-2.22c1.71 0 3.2 1.3 2.41 4.58l-7.96 1.85c1.38-3.7 3.7-6.43 5.55-6.43m4.4 12.8h-1.57c-1.99 2.36-4.12 4.21-6.25 4.21-2.18 0-3.29-1.3-3.29-4.21 0-1.2 0.14-2.41 0.37-3.52l12.8-4.21c2.5-5.93-0.51-8.52-4.03-8.52-6.07 0-13 10.1-13 19 0 3.98 1.9 6.16 4.86 6.16 3.47-0.01 7.08-3.39 10-8.94m-31.4 5.18c-1.25 0-3.06-1.16-3.06-2.18 0-0.32 0.56-1.76 1.25-3.57l2.08-5.51c2.22-2.64 5.6-5.46 7.5-5.46 1.16 0 2.04 0.74 2.04 2.45 0.01 5.06-4.71 14.3-9.81 14.3m14.6-16.3c0-3.75-1.39-5.14-3.98-5.14-3.24 0-6.3 3.43-9.35 7.59l7.73-20.3-0.42-0.51-8.1 0.93v0.97l1.57 1.2c1.44 1.11 0.97 2.27-0.32 5.6l-8.34 21.5c-0.6 1.57-1.34 3.43-1.34 3.94 0 2.22 3.01 4.31 5.74 4.31 6.3 0 16.8-11.3 16.8-20m-25.2-2.45c0.51-1.71-0.65-2.69-1.53-2.69-3.7 0-8.1 3.33-9.86 8.01h1.2c1.2-1.71 3.24-3.61 5.14-3.94l-7.08 18.4c-0.65 1.71 0.65 2.69 1.53 2.69 3.52 0 7.64-3.38 9.4-8.01h-1.21c-1.2 1.71-3.24 3.61-5.14 3.94zm1.3-9.26c1.67 0 3.06-1.34 3.06-3.06 0-1.67-1.39-3.06-3.06-3.06-1.71 0-3.06 1.39-3.06 3.06 0 1.72 1.34 3.06 3.06 3.06m-18.7-2.97h-16.9l-0.46 1.44c4.95 1.02 5.42 1.48 3.1 7.87l-5.46 15.2c-2.32 6.34-3.29 6.85-8.98 7.87l-0.42 1.44h25.6l5.56-9.91h-1.94c-3.15 3.47-6.85 7.83-12.6 7.83-4.31 0-4.82-0.74-2.5-7.22l5.46-15.2c2.27-6.34 3.29-6.85 8.98-7.87z"/>
			<path class="st0" d="m179 158c0.9-0.9 1.81-1.87 2.71-2.84h-0.02c1.68-1.91 3.33-3.72 5.29-5.39 0.59-0.53 1.17-1 1.72-1.38 0.16-0.16 0.16-0.48 0.32-0.63-0.79 0.32-1.27 0.95-2.06 1.27-0.16 0-0.32-0.16-0.16-0.32 0.56-0.42 1.13-0.85 1.69-1.27h-0.11c-0.16 0-0.16-0.16-0.16-0.32-2.06-0.32-3.65 1.11-5.07 2.38-0.32 0.16-0.63-0.16-0.79-0.16-2.38 0.79-4.12 2.85-6.5 3.8v-0.32c-0.95 0.32-1.87 0.89-2.85 1.11-1.43 0.32-2.69 0.16-3.96 0.16-1.92 0.19-3.84 0.62-5.76 1.03-0.06 0.01-0.11 0.03-0.17 0.04-1.03 0.28-2 0.67-2.95 1.19-0.04 0.02-0.07 0.04-0.11 0.06-0.08 0.1-0.16 0.19-0.23 0.27-0.34 0.37-0.63 0.72-1.09 0.95-0.97 0.5-1.77 1.36-2.63 2.06-0.06 0.05-0.16 0.07-0.25 0.08-0.85 0.82-1.69 1.64-2.55 2.44-0.06 0.06-0.31 0.09-0.48 0.06 0-0.01 0.01-0.01 0.01-0.01 0.03-0.05 0.06-0.1 0.09-0.15 0.13-0.22 0.27-0.45 0.41-0.67 0.15-0.25 0.31-0.49 0.47-0.74 0.22-0.33 0.44-0.65 0.67-0.96 0.06-0.08 0.04-0.15-0.01-0.21-0.05-0.05-0.13-0.08-0.22-0.08 0.79-0.77 1.73-1.42 2.66-1.99v-0.03c-0.11 0.04-0.26-0.05-0.18-0.16 0.1-0.14 0.18-0.29 0.27-0.43 0.02-0.05 0.03-0.09 0.05-0.14-0.04-0.04-0.08-0.08-0.12-0.13-0.26 0.17-0.53 0.32-0.74 0.52-0.38 0.34-0.68 1.04-1.25 1.03-0.04 0-0.15-0.01-0.24-0.03-0.07-0.01-0.13-0.03-0.17-0.06 0.01-0.01 0.01-0.02 0.02-0.04 0.01-0.01 0.02-0.03 0.02-0.04 0.01-0.01 0.02-0.03 0.02-0.04 0.02-0.05 0.05-0.09 0.08-0.14s0.05-0.09 0.08-0.14c0.02-0.04 0.04-0.07 0.06-0.11 0.04-0.07 0.07-0.13 0.11-0.2 0.03-0.05 0.06-0.1 0.08-0.14 0.07-0.12 0.14-0.23 0.2-0.35 0.03-0.06 0.07-0.11 0.1-0.17 0.06-0.1 0.11-0.19 0.17-0.29 0.08-0.13 0-0.24-0.12-0.28 0.29-0.38 0.65-0.7 1.09-0.95h-0.05c0.61-0.31 1.21-0.68 1.82-1.02 0.09-0.08 0.17-0.15 0.26-0.23-0.9 0.3-1.72 0.71-2.52 1.24 0 0-0.21 0.09-0.27 0.14 0 0-0.18 0.07-0.4-0.14-0.02-0.03-0.04-0.06-0.04-0.12 0.16-0.32 0.63-0.48 0.95-0.79 0.16 0 0.32 0 0.32 0.16 5.07-3.96 12-3.01 17.9-5.07 0.48-0.32 0.95-0.63 1.43-0.95 0.79-0.32 1.43-1.11 2.38-1.58 1.27-0.95 2.22-2.06 2.69-3.64 0-0.16-0.16-0.32-0.16-0.32-2.06 2.22-4.44 3.96-6.97 5.23-3.33 1.74-6.97 1.43-10.5 1.9 0.16-0.32 0.48-0.32 0.79-0.32 0-0.48 0.32-0.63 0.63-0.95h0.48c0.16 0 0.16-0.32 0.32-0.32 0.32 0 0.79-0.16 0.63-0.16-0.48-0.63-1.43 0.48-2.22 0 0.32-0.32 0.16-0.79 0.48-0.95h0.63c0-0.32 0.32-0.63 0.32-0.63 2.38-1.43 4.6-2.54 6.81-3.8-0.48 0-0.79 0.48-1.27 0.16 0.32 0 0-0.48 0.32-0.48 1.74-0.48 3.17-1.43 4.91-2.06-0.63 0-1.11 0.48-1.74 0 0.32-0.16 0.48-0.48 0.95-0.48v-0.48c0-0.16 0.16-0.16 0.32-0.16-0.16 0-0.32-0.16-0.32-0.16 0.16-0.32 0.63-0.16 0.95-0.48-0.16 0-0.48 0-0.48-0.16 0.48-0.63 1.27-0.79 2.06-0.95-0.16-0.32-0.63 0-0.63-0.32 0-0.16 0.16-0.16 0.32-0.16h-0.32c-0.32-0.16-0.16-0.48-0.16-0.63 0.95-1.11 0.95-2.54 1.43-3.8-0.16 0-0.32 0-0.32-0.16-1.58 1.74-4.12 2.38-6.5 3.01h-0.79c-0.79 0.32-1.9 0.32-2.69-0.16-0.63-0.32-0.95-0.79-1.58-1.27-1.27-0.79-2.54-1.43-3.96-1.9-3.96-1.27-8.08-1.9-12.2-1.74 1.74-0.95 3.67-1.03 5.55-1.58 2.69-0.79 5.23-1.74 8.08-1.58-0.48-0.16-1.11 0-1.58 0-2.22-0.16-4.44 0.48-6.81 0.95-1.58 0.32-3.01 0.95-4.6 1.27-0.95 0.32-1.43 1.27-2.54 1.11v-0.48c1.58-1.9 3.49-3.8 6.02-3.96 2.85-0.48 5.55 0 8.4 0.32 2.06 0.16 3.96 0.63 6.02 1.11 0.79 0 0.95 1.27 1.59 1.43 0.95 0.32 1.9 0 2.85 0.63 0-0.32-0.16-0.63 0-0.95 0.63-0.63 1.43 0.16 2.06-0.16 1.27-0.79-1.11-2.22-1.74-3.33 0-0.16 0.16-0.32 0.16-0.32 1.27 1.11 2.22 2.38 3.8 3.17 0.79 0.32 2.69 0.79 2.38-0.16-0.79-1.74-2.38-3.17-3.64-4.75v-0.63c-0.32 0-0.32-0.16-0.48-0.32v-0.63c-0.63-0.32-0.48-0.95-0.79-1.43-0.48-0.79-0.16-1.9-0.48-2.85s-0.48-1.74-0.63-2.69c-0.48-2.69-1.11-5.07-1.43-7.61-0.32-3.01 1.74-5.39 3.17-8.08 1.11-1.9 2.38-3.8 4.44-5.07 0.48-1.9 1.74-3.49 3.01-5.07 1.27-1.55 3.37-2.49 4.89-3.17 2.21-0.99 4.21-1.61 4.21-1.61h-109v83.9h77c3.02-2.17 6.03-3.2 10.2-5.28 2-0.95 6.55-3.04 8.09-4.58zm-24.4-11.4c-0.32 0-0.95 0.16-0.79-0.16 0.16-0.79 1.27-0.79 1.9-1.11 0.32-0.16 0.79-0.48 1.11-0.32 0.32 0.48 0.79 0.32 1.11 0.63-0.96 0.96-2.22 0.48-3.33 0.96zm-24.2-3.49s-0.16-0.16-0.16-0.32c2.06-2.69 3.64-5.23 5.07-8.08 2.06-1.11 3.77-2.72 5.39-4.44 2.69-2.85 5.55-5.39 8.87-6.97 1.27-0.48 2.85-0.32 4.12 0.16-0.48 0.63-1.27 0.48-1.9 0.95-0.16 0-0.32 0-0.48-0.16 0.16-0.16 0.16-0.32 0.16-0.48-1.58 1.74-3.8 2.54-5.07 4.6-0.95 1.58-1.58 3.65-3.64 4.12-0.63 0.16 0.16-0.48-0.16-0.32-4.91 3.01-8.4 6.66-12.2 10.9zm13.2-10.5c-0.16 0.32-0.33 0.35-0.48 0.63-0.16 0.32-0.32 0.48-0.63 0.63-0.16 0-0.32 0-0.32-0.16 0.16-0.63 0.63-1.27 1.27-1.43 0.16 0.01 0.16 0.17 0.16 0.33zm7.36 23.7c-0.07 0.17-0.23 0.32-0.39 0.46 0.2 0.04 0.34 0.13 0.21 0.25-0.37 0.34-0.72 0.68-1.2 0.84-0.03 0.01-0.13 0.03-0.24 0.03-0.19 0.19-0.39 0.37-0.59 0.55-0.19 0.17-1.06 0.05-0.79-0.19 0.4-0.36 0.77-0.74 1.17-1.11 0.22-0.2 0.46-0.4 0.66-0.63 0.11-0.13 0.2-0.25 0.34-0.35 0.12-0.08 0.96-0.16 0.83 0.15zm-2.84-1.31c-0.01 0.01-0.03 0.02-0.04 0.03-0.59 0.42-1.18 0.84-1.81 1.21-0.68 0.39-1.39 0.69-2.09 1.03-0.01-0.01-0.01-0.03-0.02-0.04-0.05-0.07-0.16-0.12-0.27-0.06-0.6 0.32-1.11 0.75-1.6 1.21-0.07 0.07-0.15 0.14-0.22 0.21l-0.02 0.02c-0.08 0.07-0.15 0.15-0.23 0.22l-0.04 0.04c-0.11 0.11-0.22 0.23-0.34 0.37-0.08 0.09-0.11 0.15-0.21 0.22s-0.37 0.06-0.35-0.12v-0.03c-0.09 0.05-0.19 0.1-0.28 0.14s-0.17 0.09-0.25 0.14c-0.03-0.01-0.07-0.02-0.11-0.02s-0.08 0.01-0.11 0.04c-0.19 0.15-0.39 0.31-0.57 0.48-0.33 0.3-0.64 0.63-0.92 0.98-0.01 0-0.01 0.01-0.01 0.01-0.01 0.01-0.02 0.03-0.03 0.04-0.02 0.02-0.03 0.04-0.05 0.06s-0.03 0.04-0.05 0.07c0 0.01-0.01 0.01-0.02 0.02-0.04 0.05-0.07 0.11-0.11 0.16 0 0 0 0.01-0.01 0.01-0.03 0.03-0.07 0.05-0.13 0.06l-0.06-0.09c-0.02-0.02-0.03-0.05-0.04-0.08-0.05-0.08-0.09-0.17-0.14-0.25v-0.01c-0.01-0.03-0.03-0.05-0.04-0.08 0.17-0.18 0.34-0.38 0.5-0.57 0.01-0.01 0.02-0.03 0.03-0.04 0.06-0.07 0.11-0.14 0.16-0.2 0.09-0.11 0.18-0.23 0.27-0.34 0.03-0.04 0.06-0.08 0.1-0.13 0.17-0.23 0.34-0.45 0.5-0.67 0-0.01 0.01-0.01 0.01-0.02 0.02-0.03 0.05-0.07 0.07-0.1 0.08-0.11 0.15-0.23 0.22-0.34 0.06-0.1 0.12-0.21 0.17-0.32 0-0.01 0.01-0.02 0.01-0.02 0.01-0.01 0.01-0.02 0.02-0.03l0.03-0.06c0.06-0.12 0.11-0.24 0.15-0.37 0-0.01 0.01-0.03 0.01-0.04 0.01-0.03 0.02-0.07 0.04-0.1 0.02-0.06 0.03-0.12 0.05-0.17 0-0.01 0.01-0.03 0.01-0.04 0.02-0.08 0.04-0.15 0.06-0.23 0.01-0.04 0-0.08-0.02-0.11 0.17-0.3 0.38-0.58 0.63-0.86-0.02 0.01-0.05 0.03-0.07 0.04-0.23 0.15-0.38 0.35-0.59 0.51-0.17 0.13-0.49-0.08-0.29-0.24 0.14-0.1 0.24-0.22 0.36-0.33 0.01-0.01 0.01-0.02 0.02-0.03 0.26-0.26 0.51-0.59 0.81-0.8 0.18-0.13 0.34-0.24 0.49-0.37 0.02-0.02 0.05-0.04 0.07-0.06 0.11-0.15 0.23-0.28 0.35-0.4l0.02-0.02c1.52-1.46 4.07-1.4 6.07-2.33 0.79-0.32 1.74 0.16 2.54 0 0.48 0 0.95 0 1.43 0.32-1.44 0.79-2.76 1.67-4.06 2.48zm3.25-11c-0.16-0.16 0.48 0 0.63-0.32h-1.27c-0.16 0-0.16-0.16-0.16-0.32-0.79 0.16-1.74 0.48-2.54 0.63-1.11 0.32-2.06 1.11-3.33 1.43-1.74 0.63-3.17 2.06-5.07 2.69-0.16 0-0.16-0.16-0.16-0.32 0.16-0.48 0.79-0.63 1.11-1.11 0-0.16 0-0.32-0.16-0.32 1.27-1.74 3.01-2.69 4.6-4.12v-0.48c0.48-0.63 1.27-0.95 1.58-1.74 0.16-0.48 0.79-1.11 1.58-1.43-0.16-0.16-0.48-0.16-0.48-0.48-0.63 0-1.27 0.32-1.9-0.16 0.3-0.3 0.63-0.46 0.99-0.56-0.14-0.03-0.26-0.1-0.36-0.23-0.16-0.32 0.31-0.67 0.79-0.79 0.63-0.16 1.43-0.16 1.9-0.63-1.11-0.16-2.38 0.32-3.49-0.32 0.79-2.06 2.06-3.8 3.96-4.75 0.16 0 0.48 0 0.48 0.16 0 0.79-0.48 1.43-1.27 1.58 1.27 0.32 2.54 0.32 3.8 0.95-0.16 0.32-0.48 0.16-0.63 0.16 0.79 0.48 1.74 0.16 2.54 0.79-0.48 0.48-0.95 0-1.43 0 4.91 1.43 10.1 2.54 14.3 5.7-3.49 1.74-7.13 2.54-10.9 3.33-0.48 0-0.79 0-1.27-0.16 0 0.16 0 0.48-0.16 0.48-0.63 0-1.11 0-1.58 0.32-0.6 0.34-1.56 0.49-2.03 0.02z" fill="#000091"/>
				<path class="st1" d="m314 83.8h-90.2s0.17 0.03 0.86 0.4c0.73 0.39 1.68 0.9 2.28 1.21 1.16 0.61 2.29 1.37 3.02 2.54 0.32 0.48 0.79 1.43 0.48 2.06-0.32 0.79-0.48 2.06-1.27 2.38-0.95 0.48-2.22 0.48-3.33 0.32-0.63 0-1.27-0.16-1.9-0.32 2.38 0.95 4.6 2.06 6.18 4.28 0.16 0.32 0.79 0.48 1.43 0.48 0.16 0 0.16 0.32 0.16 0.48-0.32 0.32-0.63 0.48-0.48 0.95h0.48c0.79-0.32 0.63-1.9 1.74-1.43 0.79 0.48 1.11 1.58 0.63 2.38-0.63 0.63-1.27 1.11-1.9 1.58-0.16 0.32-0.16 0.79 0 1.11 0.48 0.63 0.63 1.27 0.79 1.9 0.48 1.11 0.63 2.38 1.11 3.49 0.63 2.38 1.27 4.75 1.11 7.13 0 1.27-0.63 2.38-0.16 3.64 0.32 1.27 1.11 2.22 1.74 3.33 0.63 0.95 1.27 1.58 1.74 2.54 0.95 1.58 2.69 3.17 1.9 5.07-0.48 1.11-2.22 0.95-3.33 1.58-0.95 0.79-0.16 2.06 0.32 2.85 0.79 1.43-0.95 2.38-2.06 2.85 0.32 0.48 0.95 0.32 1.11 0.63 0.16 0.79 0.95 1.27 0.48 2.06-0.63 0.95-2.54 1.43-1.58 2.85 0.63 1.11 0.22 2.34-0.16 3.49-0.48 1.43-1.74 2.06-2.85 2.38-0.95 0.32-2.06 0.32-3.01 0.16-0.32-0.16-0.63-0.32-0.95-0.32-2.69-0.32-5.39-1.11-8.08-1.11-0.79 0.16-1.58 0.32-2.22 0.63-0.72 0.53-1.35 1.1-1.92 1.7l-0.02 0.02c-0.12 0.13-0.23 0.25-0.35 0.38-0.07 0.08-0.14 0.16-0.2 0.24-0.05 0.05-0.09 0.11-0.13 0.16-0.46 0.58-0.88 1.19-1.25 1.83-0.02 0.04-0.05 0.08-0.07 0.12-0.04 0.07-0.08 0.15-0.12 0.22-0.52 0.96-0.91 1.95-1.2 2.91-1.08 3.63-0.61 6.74 0.15 7.5 0.21 0.21 5.23 1.76 8.73 3.32 1.64 0.73 2.79 1.29 3.74 1.89h88.6v-83.9z" fill="#e1000f"/>
			<path class="st2" d="m230 114c0.63 0.16 1.58 0.16 1.58 0.48-0.32 1.27-2.22 1.58-3.17 2.85h-0.48c-0.48 0.32-0.32 1.11-0.79 1.11-0.48-0.16-0.95 0-1.43 0.16 0.63 0.63 1.43 1.11 2.38 0.95 0.16 0 0.48 0.32 0.48 0.63 0 0 0.16 0 0.32-0.16 0.16 0 0.32 0 0.32 0.16v0.63c-0.48 0.63-1.27 0.32-1.9 0.48 1.27 0.32 2.54 0.32 3.64 0 0.95-0.32 0-1.9 0.63-2.69-0.32 0 0-0.48-0.32-0.48 0.32-0.32 0.63-0.79 0.95-0.95 0.32 0 0.79-0.16 0.95-0.48 0-0.32-0.63-0.47-0.48-0.79 0.95-0.63 1.74-1.58 1.43-2.54-0.16-0.48-1.43-0.48-2.22-0.79-0.79-0.32-1.74 0-2.69 0.16-0.79 0-1.59 0.48-2.38 0.63-1.11 0.32-2.06 0.95-3.01 1.58 1.11-0.48 2.22-0.63 3.49-0.95 0.96 0.01 1.77-0.23 2.7 0.01z" fill="#9d9d9c"/>
</g>
<g id="zone" transform="translate(-83.8 -83.8)" fill="none">
		<rect class="st3" transform="rotate(90 355 321)" x="33.5" y="-33.5" width="643" height="710"/>
	<rect class="st3" x="83.8" y="83.8" width="542" height="475"/>
</g>
</svg>