<svg version="1.1" id="Calque_3" xmlns="http://www.w3.org/2000/svg" xmlns:xlink="http://www.w3.org/1999/xlink" x="0px" y="0px"
	 viewBox="0 0 841.9 595.3" style="enable-background:new 0 0 841.9 595.3;" xml:space="preserve">
<style type="text/css">
	.st0{fill:#FCDF01;}
</style>
<g id="XMLID_8_">
	<path id="XMLID_130_" class="st0" d="M180.7,495.3c0-148.6,0-297.3,0-446c148.6,0,297.2,0,445.9,0c0,148.6,0,297.3,0,446
		C478.1,495.3,329.4,495.3,180.7,495.3z M445.4,416.6c5.3,10.6,12.2,19.3,21.3,26c24.6,18,52.2,21.2,80.9,13.8
		c32.6-8.4,48.4-34.2,43-67.5c-2.8-17.2-12.1-30.2-26.7-38.7c-13.7-8-28.5-14.1-42.6-21.3c-5.7-2.9-11.5-6.1-16.5-10.2
		c-5.5-4.6-6-11.3-4.3-18c1.7-6.7,6.6-10.7,13.1-11.9c11-2,20.7,0.4,27.8,9.9c1.7,2.3,3.3,4.6,5.1,7.2c11-7.1,21.8-14,32.8-21.1
		c-9.6-17.3-23-29-42.3-32.2c-8.9-1.5-18.2-1.7-27.2-1c-24.4,1.9-43.5,17.1-49.7,38.9c-6.1,21.5-0.9,48.1,19.9,63
		c9.1,6.5,19.4,11.4,29.4,16.6c9.2,4.8,18.9,8.7,28.2,13.4c5.1,2.6,9.1,6.7,10.7,12.5c2.9,11-2.9,20.4-14.8,24.2
		c-18.8,5.9-38.2-1.2-50.2-18.3c-1.2-1.7-2.5-3.4-3.7-5.2C468.1,403.4,457,409.9,445.4,416.6z M380.9,253.6c0,2.4,0,4.4,0,6.4
		c0,43.9,0,87.8,0,131.7c0,3.9-0.1,7.8-0.4,11.7c-0.9,10.8-6.3,16.5-17,18.1c-9.9,1.5-18-1.5-24-9.6c-2.7-3.7-5.1-7.6-7.7-11.5
		c-11.6,7-22.8,13.8-33.9,20.5c4,11.5,15.2,24.2,27.3,30.4c20.7,10.7,42.2,11.2,63.9,3.5c15.3-5.4,25.6-16.4,30.2-31.9
		c2.3-7.8,4-16.1,4-24.2c0.4-46.9,0.2-93.9,0.2-140.8c0-1.4-0.2-2.8-0.2-4.4C409.1,253.6,395.4,253.6,380.9,253.6z"/>
	<path id="XMLID_129_" d="M445.4,416.6c11.6-6.7,22.7-13.2,34.3-19.9c1.3,1.8,2.5,3.5,3.7,5.2c12,17.1,31.4,24.2,50.2,18.3
		c11.9-3.7,17.7-13.2,14.8-24.2c-1.6-5.9-5.6-9.9-10.7-12.5c-9.3-4.7-18.9-8.6-28.2-13.4c-10-5.2-20.3-10.1-29.4-16.6
		c-20.8-14.9-26-41.5-19.9-63c6.2-21.8,25.3-37,49.7-38.9c9-0.7,18.3-0.5,27.2,1c19.3,3.2,32.7,14.9,42.3,32.2
		c-10.9,7-21.7,14-32.8,21.1c-1.8-2.6-3.4-4.9-5.1-7.2c-7-9.5-16.8-12-27.8-9.9c-6.5,1.2-11.3,5.2-13.1,11.9
		c-1.7,6.7-1.2,13.4,4.3,18c4.9,4.1,10.7,7.3,16.5,10.2c14.1,7.2,28.9,13.3,42.6,21.3c14.6,8.5,23.8,21.5,26.7,38.7
		c5.4,33.3-10.4,59.1-43,67.5c-28.8,7.4-56.3,4.2-80.9-13.8C457.5,435.9,450.7,427.2,445.4,416.6z"/>
	<path id="XMLID_128_" d="M380.9,253.6c14.5,0,28.2,0,42.3,0c0.1,1.6,0.2,3,0.2,4.4c0,46.9,0.2,93.9-0.2,140.8
		c-0.1,8.1-1.7,16.4-4,24.2c-4.6,15.5-15,26.4-30.2,31.9c-21.7,7.7-43.2,7.2-63.9-3.5c-12.1-6.2-23.3-18.9-27.3-30.4
		c11.1-6.7,22.3-13.5,33.9-20.5c2.6,3.9,5,7.8,7.7,11.5c6,8.1,14.1,11.1,24,9.6c10.7-1.6,16.1-7.3,17-18.1c0.3-3.9,0.4-7.8,0.4-11.7
		c0-43.9,0-87.8,0-131.7C380.9,258,380.9,256,380.9,253.6z"/>
</g>
</svg>