<svg version="1.1" id="Calque_3" xmlns="http://www.w3.org/2000/svg" xmlns:xlink="http://www.w3.org/1999/xlink" x="0px" y="0px"
	 viewBox="0 0 841.9 595.3" style="enable-background:new 0 0 841.9 595.3;" xml:space="preserve" width="212" height="150">
<style type="text/css">
	.st0{fill:#5D4138;}
	.st1{fill:none;stroke:#4EAE4F;stroke-width:18;stroke-miterlimit:10;}
	.st2{fill:#4EAE4F;}
	.st3{fill:#82C283;}
	.st4{fill:#DBE9C7;}
</style>
<g id="XMLID_1_">
	<path id="XMLID_123_" class="st0" d="M602.1,204c1.2,47-4.9,92.9-22.1,136.8c-28.3,72.5-78.2,125.9-145.6,163.8
		c-6.8,3.8-13.8,7.3-21,10.4c-2.1,0.9-5.3,1-7.3,0c-99.7-49.6-164.1-126.7-183.9-238c-5.7-31.8-5.5-64-3.8-96.1
		c0.7-13.5,1.5-27,3.1-40.3c2-17.2,12.1-28,28.7-32.5C286,98.3,322.2,91.4,359,87.7c27.5-2.8,54.9-3.6,82.4-1.7
		c39.9,2.8,79.2,9.5,118,19.4c2.8,0.7,5.5,1.4,8.3,2.1c17.9,4.8,29,17.9,30.8,36.5c0.9,10.1,1.7,20.2,2.3,30.3
		C601.3,184.1,601.6,194.1,602.1,204z M409.6,124.1c-1.4,1.2-2.4,2-3.3,2.9c-29.2,28.1-50.7,61.1-63.1,99.7
		c-10.8,33.7-14.2,68-4.8,102.8c9,33.2,28.1,60.2,53.2,83.2c3.8,3.5,5.7,7,5.4,12.3c-0.4,10.2-0.1,20.5-0.1,30.8
		c8.9,0,17.1,0,25.7,0c0-11.7-0.2-22.8,0.1-34c0.1-2.5,1.5-5.4,3.2-7.2c4.6-5.1,9.9-9.7,14.6-14.8c34.2-36.9,50-80.2,44.5-130.6
		c-3.8-34.9-15.8-66.8-34.6-96.3C439,155,425.7,138.7,409.6,124.1z"/>
	<path id="XMLID_48_" class="st1" d="M602.1,204c1.2,47-4.9,92.9-22.1,136.8c-28.3,72.5-78.2,125.9-145.6,163.8
		c-6.8,3.8-13.8,7.3-21,10.4c-2.1,0.9-5.3,1-7.3,0c-99.7-49.6-164.1-126.7-183.9-238c-5.7-31.8-5.5-64-3.8-96.1
		c0.7-13.5,1.5-27,3.1-40.3c2-17.2,12.1-28,28.7-32.5C286,98.3,322.2,91.4,359,87.7c27.5-2.8,54.9-3.6,82.4-1.7
		c39.9,2.8,79.2,9.5,118,19.4c2.8,0.7,5.5,1.4,8.3,2.1c17.9,4.8,29,17.9,30.8,36.5c0.9,10.1,1.7,20.2,2.3,30.3
		C601.3,184.1,601.6,194.1,602.1,204z"/>
	<path id="XMLID_51_" class="st2" d="M410.2,124.1c0,0,77.8,67.2,77.1,164.6c0,0,5.6,71.3-63.9,129.6l-13.2-39.1V124.1z"/>
	<path id="XMLID_65_" class="st3" d="M410.2,123.1c0,0-78.8,67.2-78.1,164.6c0,0-5.6,71.3,64.7,129.6l13.4-39.1V123.1z"/>
	<path id="XMLID_67_" class="st4" d="M396.5,415.9l13-38.1l13,39.1v38.9h-26.1C396.5,455.8,396.5,414.3,396.5,415.9z"/>
</g>
</svg>