<svg version="1.1" id="Calque_3" xmlns="http://www.w3.org/2000/svg" xmlns:xlink="http://www.w3.org/1999/xlink" x="0px" y="0px"
	 viewBox="0 0 841.9 595.3" style="enable-background:new 0 0 841.9 595.3;" xml:space="preserve" width="212" height="150">
<style type="text/css">
	.st0{fill:#04618A;}
	.st1{fill:#E48E02;}
</style>
<g id="XMLID_45_">
	<path id="XMLID_194_" class="st0" d="M264.1,279.1c-0.4,0.8-0.8,1.6-1.2,2.4c-8.1,18.2-16.7,36.2-24.3,54.6
		c-4.8,11.5-15.4,11.7-23.6,9.1c-3.4-1.1-5.5-3.9-7-7.1c-5.1-11.3-10.1-22.6-15.2-33.8c-3.3-7.4-6.7-14.9-10-22.3
		c-0.4-0.8-0.8-1.6-1.2-2.5c-0.2,0-0.5,0.1-0.7,0.1c0,1,0,2,0,2.9c0,20,0,40.1,0.1,60.1c0,2.3-0.6,3.1-3,2.9
		c-3.6-0.2-7.2-0.2-10.8,0c-2.2,0.1-2.8-0.6-2.8-2.8c0.1-21.3,0-42.5,0.1-63.8c0-1.3,0.2-2.6,0.5-3.9c0.5-2.8,2-4.9,4.6-6.1
		c5.6-2.6,11.5-3.7,17.7-2.2c5,1.3,8.3,4.7,10.3,9.4c5.9,13.7,11.8,27.4,17.7,41.1c2,4.6,3.9,9.2,5.9,13.8c0.3,0.8,0.8,1.5,1.4,2.6
		c0.6-1.3,1.1-2.1,1.5-3c7.8-17.5,15.8-34.8,23.2-52.4c4.4-10.4,11.6-13.7,22.6-11.5c1.6,0.3,3.2,0.9,4.8,1.4
		c4.3,1.5,6.5,4.7,6.5,9.2c0.1,22,0,43.9,0.1,65.9c0,1.8-0.7,2.2-2.4,2.2c-3.8-0.1-7.6-0.1-11.3,0c-2,0.1-2.6-0.7-2.5-2.6
		c0.1-11.2,0-22.3,0-33.5c0-9.1,0-18.3,0-27.4c0-0.9-0.1-1.8-0.1-2.7C264.6,279.2,264.3,279.2,264.1,279.1z"/>
	<path id="XMLID_191_" class="st1" d="M549,342.5c5.3,4.8,10.3,9.4,16,14.6c-4.6,0-8.4-0.3-12.2,0.1c-4.7,0.5-8.3-0.9-11.4-4.4
		c-1.9-2.2-4.4-3.8-6.4-5.9c-1.6-1.6-3.3-1.9-5.4-1.8c-11.1,0.2-22.3,0.7-33.4,0.2c-4.4-0.2-9-2.3-13.1-4.3
		c-5.3-2.7-7.7-7.7-7.7-13.5c-0.1-13.9-0.1-27.8,0-41.6c0.1-6.7,3.5-11.4,9.5-14.3c5-2.4,10.3-3.6,15.8-3.6c11-0.2,22-0.2,32.9,0
		c5.4,0.1,10.6,1.1,15.5,3.5c6.4,3,9.8,7.9,9.8,15.2c-0.1,13.4-0.1,26.9,0,40.3c0,6.8-2.4,11.9-8.8,14.8
		C549.9,341.7,549.6,342,549,342.5z M508.9,323c0.1-0.2,0.1-0.5,0.2-0.7c5.7,0,11.3,0,17,0.1c0.7,0,1.5,0.8,2.2,1.3
		c3.1,2.8,6.3,5.6,9.4,8.5c1.1,1.1,2.1,1,3.2,0c2.3-2,3.1-4.5,3.1-7.5c0-12,0-24.1,0-36.1c0-5.3-2.6-8.5-7.8-9.6
		c-1.8-0.4-3.6-0.6-5.5-0.6c-7.2-0.1-14.4-0.1-21.6,0c-2.6,0-5.3,0.1-7.8,0.6c-5.6,1-8.1,4.3-8.1,9.9c0,11.7,0,23.4,0,35
		c0,6.3,3,10,9.3,10.6c5.4,0.6,10.9,0.4,16.3,0.5c0.7,0,1.5-0.1,3-0.3C517,330.6,513,326.8,508.9,323z"/>
	<path id="XMLID_190_" class="st0" d="M668.1,251.8c-9.2,1.8-18.4,3.7-28.3,5.7c1.4,1.8,2.2,3.3,3.4,4.2c2.5,2,5.2,3.9,8,5.5
		c6.6,4,12.3,9,17.2,15c2,2.5,4.1,4.8,5.8,7.5c-7.2-6.3-15.4-10.7-23.9-14.7c-6.4-3.1-12.3-7.2-16.6-13.1c-1.1-1.5-1.9-3.4-2.9-5
		c-1.4-2.2-0.4-3.1,1.6-3.9c7.9-3.1,16.2-4.5,24.7-4.4c0.9,0,1.8,0,2.8,0c0.1-0.2,0.3-0.5,0.4-0.7c-0.9-1-1.7-2.3-2.9-3.1
		c-6.4-4.4-12.6-9.1-19.3-12.8c-4.5-2.6-9.7-4.1-14.7-5.6c-4.8-1.4-8.3-4-10.4-8.5c-5.1-11.1-10.8-21.9-15.4-33.2
		c-6.4-15.9-16.3-29.2-28.8-40.7c-8.9-8.1-18.7-15-30.1-19c-5.1-1.8-10.8-2.2-16.2-2.7c-2.5-0.2-4.5-1-6.4-2.6
		c-5.6-4.7-12.1-7.6-19-9.8c-2.2-0.7-4.4-0.8-6.1,1.1c-1.6,1.9-1.1,4-0.1,5.9c1.2,2.1,2.3,4.4,3.8,6.2c7.1,8.3,11.9,17.7,14.8,28.2
		c2.1,7.7,5.1,15,11,20.6c2.3,2.2,2.2,5,1.2,7.8c-1.4,4.4-3.2,8.8-4.1,13.3c-2.1,11.5-1.4,22.9,3.9,33.7c1.3,2.6,2.9,5,6.5,5.6
		c1.7-10.2,1.1-20.9,10-28.3c6.7,17.5,15.5,33.8,27.6,47.4c-9.4-6.3-19.6-17.7-24.9-28.3c-0.7-1.4-1.4-2.8-2.2-4.1
		c-0.3,0-0.5,0-0.8,0c-0.5,2.7-1,5.3-1.5,8c-0.4,2.2-0.6,4.5-1.2,6.7c-1.5,4.8-6.6,6.8-10.8,4c-2.1-1.4-4-3.4-5.5-5.6
		c-4.4-6.3-6.2-13.5-7-21c-1.3-11.4,1.4-22.3,4.7-33c0.3-0.9-0.1-2.4-0.7-3c-4.2-4.3-6.8-9.6-8.9-15.1c-2.2-5.5-3.7-11.3-5.9-16.8
		c-1.4-3.5-3.5-6.8-5.6-10c-2.5-3.8-5.5-7.3-8.1-11.1c-2.2-3.3-3.4-6.9-2.4-11c1.2-4.4,4.4-7.5,9-7.5c3.4,0,6.8,0.6,10,1.6
		c6,1.9,11.4,4.9,16.3,8.9c1.2,1,2.9,2,4.4,2c14.2-0.3,25.9,5.8,37.1,13.7c15.3,10.8,28,24.1,37.2,40.3c3.6,6.4,6,13.4,9.1,20.1
		c3.9,8.3,7.9,16.4,11.8,24.7c1.2,2.5,3,4.1,5.7,5.1c14.2,5.1,25.9,13.9,37,23.8c2.2,2,3.8,4.5,5.7,6.8
		C668.2,251.1,668.1,251.5,668.1,251.8z"/>
	<path id="XMLID_189_" class="st0" d="M375.9,322.6c0,9-0.1,17.9,0,26.9c0.1,8.1-3.7,13.3-10.9,16.4c-5,2.2-10.2,3.2-15.6,3.2
		c-16.8,0-33.6-0.1-50.4,0.1c-2.5,0-3.3-0.7-3-3.1c0.2-1.7,0.2-3.3,0-5c-0.2-2.1,0.5-2.7,2.6-2.7c13,0.1,26,0.1,39,0
		c4.8,0,9.7,0.1,14.4-0.6c6.2-0.9,8.9-5.7,7-11.7c-0.2-0.6-1.6-1.2-2.4-1.2c-7-0.1-14.1,0-21.1-0.1c-6.6-0.1-13.2-0.1-19.7-0.6
		c-5.7-0.4-10.9-2.4-15.4-6.1c-3.2-2.6-4.8-5.9-4.7-10.1c0.1-11.4,0.2-22.8,0.1-34.3c0-1.9,0.6-2.4,2.4-2.4c3.7,0.1,7.4,0.1,11.1,0
		c2-0.1,2.7,0.5,2.7,2.6c-0.1,10.6,0,21.3,0,31.9c0,6.6,2.5,9.2,9.2,9.3c8.7,0.1,17.4,0,26.1,0c3.2,0,6.3-0.1,9.5,0
		c2,0.1,2.5-0.6,2.5-2.5c-0.1-12.7,0-25.5-0.1-38.2c0-2.6,0.7-3.3,3.3-3.2c3.6,0.2,7.2,0.1,10.8,0c2-0.1,2.5,0.6,2.5,2.6
		C375.9,303.5,375.9,313,375.9,322.6z"/>
	<path id="XMLID_188_" class="st1" d="M437.1,267.7c8.3,0,16.7,0.1,25,0c2,0,2.7,0.6,2.5,2.6c-0.1,1.7-0.2,3.5,0,5.3
		c0.2,2.3-0.6,3-2.9,3c-13.8-0.1-27.6-0.1-41.4,0c-2.9,0-5.8,0.2-8.6,0.6c-4,0.6-5.6,2.6-5.7,6.6c0,1.8,0.1,3.5,0,5.3
		c-0.4,7.7,3.3,10.4,10.5,10.6c7.8,0.2,15.6-0.1,23.5,0.1c6.7,0.2,13,1.8,18.6,5.7c3.6,2.5,5.8,5.8,5.5,10.4c-0.2,3.3-0.1,6.7,0,10
		c0.2,5.4-2.2,9.3-6.5,12.2c-5.3,3.6-11.2,5.5-17.6,5.5c-16,0.1-32,0-48,0.1c-2,0-2.7-0.5-2.5-2.5c0.1-1.7,0.2-3.4,0-5
		c-0.3-2.5,0.5-3.3,3.1-3.3c14.2,0.1,28.5,0.1,42.7,0c1.5,0,3,0,4.5-0.3c6-1.2,7.8-3.5,7.8-9.5c0-1.5,0-3,0-4.5
		c0-5.4-2.3-8.2-7.7-8.6c-5.5-0.5-11-0.6-16.6-0.6c-6.8,0-13.5,0.1-20-2.2c-2.3-0.8-4.6-1.8-6.7-3c-4.8-2.8-7.3-6.9-7-12.6
		c0.2-3.5,0.2-7,0.4-10.5c0.4-5.1,3.2-8.6,7.5-11c4.8-2.8,10.1-4,15.6-4C421.1,267.6,429.1,267.7,437.1,267.7
		C437.1,267.7,437.1,267.7,437.1,267.7z"/>
	<path id="XMLID_187_" class="st1" d="M570.3,298.7c0-9.5,0-19,0-28.5c0-2,0.6-2.6,2.5-2.5c3.6,0.1,7.2,0.2,10.8,0
		c2.5-0.1,2.9,0.9,2.9,3.1c-0.1,8.1,0,16.2,0,24.3c0,9.5,0,19,0,28.5c0,8.2,3,11.2,11.4,11.2c14.5,0.1,29,0,43.5,0
		c3.5,0,3.5,0,3.5,3.4c0,7.3,0,7.3-7.2,7.3c-12.7,0-25.3,0.3-38-0.1c-5.5-0.2-11.2-1.1-16.5-2.6c-8.8-2.5-12.8-8.5-12.8-17.6
		C570.3,316.2,570.3,307.4,570.3,298.7z"/>
	<path id="XMLID_183_" class="st0" d="M530,146.8c-2.3-3.6-4.5-7-6.7-10.4c3.4-1.3,6-0.5,7.9,2.7C533,142,532.6,144.5,530,146.8z"/>
</g>
</svg>