<svg version="1.1" id="Calque_3" xmlns="http://www.w3.org/2000/svg" xmlns:xlink="http://www.w3.org/1999/xlink" x="0px" y="0px"
	 viewBox="0 0 841.9 595.3" style="enable-background:new 0 0 841.9 595.3;" xml:space="preserve">
<style type="text/css">
	.st0{fill:#8DC150;}
</style>
<g id="XMLID_35_">
	<path id="XMLID_135_" class="st0" d="M400.4,543.2c-2.5-0.5-5.1-0.7-7.4-1.6c-4.9-2.1-9.7-4.2-14.3-6.9c-18.7-10.9-37.3-22-56-33.1
		c-1.6-1-3.2-2-4.6-3.3c-1.8-1.6-1.5-3,0.7-4c1.1-0.5,2.3-0.9,3.5-1.3c8.8-2.8,17.1-6.6,24.9-11.4c2.4-1.4,4.4-1.3,6.7,0.1
		c15,9,30.2,17.8,45.2,26.9c3,1.8,5.5,1.8,8.5,0c47-27.2,93.9-54.3,140.9-81.4c13.5-7.8,26.9-15.6,40.5-23.3
		c3.2-1.8,4.4-4.1,4.4-7.8c-0.1-69.8-0.1-139.6,0-209.4c0-3.6-1.3-5.8-4.4-7.6c-60.5-34.8-121-69.7-181.4-104.6
		c-3.1-1.8-5.7-1.7-8.7,0.1c-60.4,35-120.9,69.9-181.3,104.7c-3,1.7-4.2,4-4.2,7.4c0.1,69.9,0.1,139.8,0,209.6
		c0,3.4,1.2,5.5,4.2,7.2c16,9.1,32,18.5,48,27.6c7.7,4.3,15.9,6.9,24.9,5.6c12.3-1.9,20.2-10.9,20.6-23.3c0-0.9,0-1.7,0-2.6
		c0-68.3,0-136.6,0-204.8c0-0.9,0-1.9,0-2.8c0.2-3,2.1-5,5-5c8-0.1,16-0.1,24,0c2.6,0,4.5,1.8,4.9,4.4c0.1,0.9,0.1,1.7,0.1,2.6
		c0,69,0,138,0,207c0,8.6-0.8,17.2-3.6,25.4c-6.3,18.5-19.4,29-38.5,32.3c-16.5,2.8-32.4,0.7-47.3-7c-10.9-5.6-21.6-11.7-32.3-17.8
		c-8.4-4.7-16.8-9.4-24.9-14.5c-11.4-7.1-17.3-17.7-18.1-31.1c-0.1-0.9-0.1-1.9-0.1-2.8c0-70.1,0-140.2,0-210.3
		c0-15.9,6.9-27.7,20.7-35.7c3.6-2.1,7.2-4.2,10.8-6.2c57-32.9,114-65.8,170.9-98.7c5-2.9,10.4-4.8,16.2-5.3c0.4,0,0.8-0.2,1.2-0.4
		c2,0,4.1,0,6.1,0c0.3,0.1,0.5,0.3,0.8,0.3c6.7,0.5,12.6,3,18.4,6.3c25.6,14.9,51.2,29.6,76.9,44.4c34.6,20,69.1,39.9,103.7,59.9
		c9,5.2,15.3,12.5,18.4,22.3c0.9,2.8,1.3,5.8,2,8.7c0,73.1,0,146.2,0,219.3c-0.1,0.3-0.3,0.5-0.3,0.8c-1.7,13.6-8.7,23.6-20.6,30.4
		c-60.8,35-121.5,70.1-182.3,105.1c-3.2,1.8-6.7,3.1-10.2,4.3c-2.2,0.8-4.5,1-6.8,1.4C404.5,543.2,402.5,543.2,400.4,543.2z"/>
	<path id="XMLID_126_" class="st0" d="M458,192.6c11.1,0.2,26,1.3,40.4,5.6c13,3.9,24.5,10.2,33.2,21.1c7.1,8.9,10.8,19.2,12.6,30.3
		c0.4,2.4,0.7,4.8,0.9,7.1c0.2,3.8-1.9,6.1-5.7,6.1c-7.6,0-15.3,0-22.9,0c-3.2,0-5-1.5-5.8-4.5c-0.5-1.8-0.9-3.7-1.5-5.5
		c-4.1-13.9-13.4-22.3-27.5-25.3c-12-2.6-24.2-2.9-36.5-2.4c-7.9,0.3-15.8,1.3-23.3,4.1c-2.3,0.9-4.5,2-6.6,3.3
		c-9.4,5.8-10.6,16.2-8.7,24.1c0.7,3.1,2.8,5.2,5.5,6.8c5.5,3.3,11.7,4.9,17.9,5.9c16.8,2.8,33.7,5.3,50.6,8
		c15.5,2.4,30.9,5.1,45.2,11.8c11.3,5.2,19.9,13,23.9,25.2c2.3,7.1,3,14.4,2.7,21.7c-0.6,15.6-6.3,29-18.1,39.5
		c-7.6,6.8-16.5,11.3-26.2,14.5c-15.1,5-30.7,6.7-46.4,6.8c-14.9,0.1-29.8-1-44.4-4.6c-13.9-3.5-26.8-8.9-37.2-19.1
		c-10.1-9.9-15.3-22.1-16.7-36c-0.3-2.5-0.4-5.1-0.4-7.6c-0.1-3.8,1.9-5.9,5.7-5.9c7.7,0,15.4,0,23.1,0c3.3,0,5.1,1.6,5.7,4.9
		c0.5,2.4,0.9,4.9,1.4,7.3c3.1,13,11.4,20.9,24,24.6c7.9,2.3,15.9,3.4,24.1,3.8c12.6,0.6,25.2,0.7,37.7-1.2
		c6.2-0.9,12.3-2.4,17.9-5.3c11.7-6,14.7-16.8,12.8-27.7c-0.8-4.4-3.7-7.6-7.6-9.3c-5.4-2.4-11-4.9-16.7-6
		c-12.5-2.4-25.2-4.2-37.9-5.8c-16.8-2.1-33.7-3.8-49.8-9.6c-7.3-2.7-14.1-6.2-20-11.4c-8-7.2-12.2-16.3-13.6-26.8
		c-1.8-13.8,0.1-26.9,7.9-38.7c6.5-9.9,15.7-16.4,26.4-21C418.5,195.1,434.6,192.4,458,192.6z"/>
</g>
</svg>